<svg height="479pt" viewBox="0 -7 479.98288 479" width="479pt" xmlns="http://www.w3.org/2000/svg"><path d="m432.277344 428.585938c-26.574219 26.515624-69.59375 26.515624-96.167969 0-32.828125-32.742188-85.964844-32.742188-118.792969 0-26.574218 26.515624-69.59375 26.515624-96.167968 0-32.824219-32.75-85.964844-32.75-118.792969 0-3.03125 3.140624-2.988281 8.128906.097656 11.214843 3.085937 3.085938 8.078125 3.128907 11.214844.097657 26.570312-26.519532 69.597656-26.519532 96.167969 0 32.828124 32.75 85.964843 32.75 118.792968 0 26.570313-26.519532 69.597656-26.519532 96.167969 0 32.828125 32.746093 85.964844 32.746093 118.792969 0 3.03125-3.136719 2.988281-8.128907-.097656-11.214844-3.085938-3.085938-8.078126-3.128906-11.214844-.097656zm0 0"/><path d="m477.667969 308.585938c-3.125-3.121094-8.1875-3.121094-11.3125 0-25.460938 25.398437-66.296875 26.582031-93.183594 2.699218 44.605469-46.726562 61.410156-113.433594 44.261719-175.710937-17.148438-62.28125-65.730469-110.984375-127.964844-128.289063l-.089844-.050781c-.039062 0-.085937 0-.125 0-32.210937-8.992187-66.269531-8.992187-98.480468 0 0 0-.089844 0-.128907 0l-.089843.050781c-54.554688 15.167969-99.078126 54.636719-120.671876 106.984375-21.597656 52.34375-17.859374 111.722657 10.128907 160.949219-27.941407-7.296875-57.648438 1.070312-77.671875 21.878906-3.125 3.128906-3.121094 8.199219.007812 11.320313 3.128906 3.125 8.195313 3.121093 11.320313-.007813 22.261719-23.371094 58.488281-26.398437 84.320312-7.046875 31.652344 38.550781 77.621094 62.574219 127.339844 66.539063 49.722656 3.96875 98.917969-12.457032 136.285156-45.5 33.089844 30.386718 84.25 29.28125 116-2.503906 3.136719-3.109376 3.164063-8.171876.054688-11.3125zm-69.65625-124.09375c-.078125 58.929687-31.046875 113.507812-81.597657 143.800781 32.941407-37.46875 50.636719-85.921875 49.597657-135.800781 0-73.074219-35.367188-138.402344-87.351563-164.199219.960938-1.1875 1.851563-2.429688 2.664063-3.722657 69.457031 22.367188 116.585937 86.953126 116.6875 159.921876zm-203.121094-144.679688c3.289063 1.8125 6.738281 3.320312 10.296875 4.511719-25.574219 26.390625-39.175781 92.824219-39.175781 156.167969 0 56.136718 10.65625 114.6875 30.898437 145.664062-50.097656-19.214844-86.898437-80.753906-86.898437-153.664062 0-70.128907 34.738281-132.128907 84.878906-152.679688zm-12.878906 160.679688c0-89.601563 25.296875-152 48-152s48 62.398437 48 152c0 89.597656-25.296875 152-48 152s-48-62.402344-48-152zm83.121093-160.679688c50.144532 20.550781 84.878907 82.550781 84.878907 152.679688 0 72.902343-36.800781 134.398437-86.894531 153.664062 20.238281-30.96875 30.894531-89.519531 30.894531-145.664062 0-63.351563-13.597657-129.785157-39.199219-156.175782 3.570312-1.1875 7.023438-2.695312 10.320312-4.503906zm-.417968-19.664062c-1.289063 1.351562-2.707032 2.578124-4.230469 3.664062l-.128906.09375c-9.035157 5.816406-19.601563 8.804688-30.34375 8.585938-10.765625.230468-21.351563-2.769532-30.398438-8.609376l-.097656-.0625c-1.527344-1.089843-2.953125-2.320312-4.246094-3.679687 22.878907-4.863281 46.527344-4.863281 69.40625 0zm-202.703125 164.34375c.109375-72.96875 47.234375-137.550782 116.6875-159.914063.8125 1.292969 1.703125 2.535156 2.664062 3.722656-51.984375 25.789063-87.351562 91.125-87.351562 164.191407-1.039063 49.875 16.660156 98.328124 49.601562 135.792968-50.550781-30.292968-81.519531-84.863281-81.601562-143.792968zm0 0"/><path d="m72.011719 352.5c0 4.417969-3.582031 8-8 8s-8-3.582031-8-8 3.582031-8 8-8 8 3.582031 8 8zm0 0"/><path d="m184.011719 392.492188c0 4.417968-3.582031 8-8 8s-8-3.582032-8-8c0-4.417969 3.582031-8 8-8s8 3.582031 8 8zm0 0"/><path d="m344.011719 384.5c0 4.417969-3.582031 8-8 8s-8-3.582031-8-8 3.582031-8 8-8 8 3.582031 8 8zm0 0"/><path d="m416.011719 392.492188c0 4.417968-3.582031 8-8 8s-8-3.582032-8-8c0-4.417969 3.582031-8 8-8s8 3.582031 8 8zm0 0"/><path d="m464.011719 368.5c0 4.417969-3.582031 8-8 8s-8-3.582031-8-8 3.582031-8 8-8 8 3.582031 8 8zm0 0"/><path d="m296.011719 440.492188c0 4.417968-3.582031 8-8 8s-8-3.582032-8-8c0-4.417969 3.582031-8 8-8s8 3.582031 8 8zm0 0"/><path d="m232.011719 456.492188c0 4.417968-3.582031 8-8 8s-8-3.582032-8-8c0-4.417969 3.582031-8 8-8s8 3.582031 8 8zm0 0"/><path d="m120.011719 456.492188c0 4.417968-3.582031 8-8 8s-8-3.582032-8-8c0-4.417969 3.582031-8 8-8s8 3.582031 8 8zm0 0"/><path d="m40.011719 448.5c0 4.417969-3.582031 8-8 8s-8-3.582031-8-8 3.582031-8 8-8 8 3.582031 8 8zm0 0"/></svg>