<svg height="480pt" viewBox="-32 0 480 480.01403" width="480pt" xmlns="http://www.w3.org/2000/svg"><path d="m416.027344 176.015625c0-4.417969-3.578125-8-8-8h-24.300782c-.675781-12.519531-2.996093-24.890625-6.898437-36.800781 24.355469-16.714844 36.003906-46.628906 29.363281-75.414063-6.640625-28.78125-30.21875-50.566406-59.433594-54.921875-29.21875-4.351562-58.121093 9.617188-72.863281 35.214844-44.804687-10.929688-92.132812.382812-127.144531 30.398438-.175781.160156-.359375.304687-.519531.480468-10.71875 9.238282-20.019531 19.996094-27.617188 31.929688l-3.558593-13.273438c-.988282-3.601562-2.808594-6.925781-5.3125-9.695312-.261719-.371094-.558594-.71875-.882813-1.039063l-67.878906-67.863281c-9.371094-9.375-24.570313-9.375-33.945313 0-9.371094 9.371094-9.371094 24.570312 0 33.941406l63.320313 63.3125 17.074219 63.730469h-15.402344c-4.417969 0-8 3.582031-8 8 .105468 78.671875 52.335937 147.753906 128 169.292969l19.203125 57.601562c-43.371094 8.664063-75.203125 36.304688-75.203125 69.105469 0 4.417969 3.582031 8 8 8h192c4.421875 0 8-3.582031 8-8 0-32.800781-31.832032-60.449219-75.199219-69.128906l19.199219-57.601563c75.660156-21.539062 127.886718-90.605468 128-169.269531zm-102.933594-105.007813c3.625 2.527344 8.613281 1.636719 11.140625-1.988281s1.636719-8.613281-1.988281-11.140625c-10.105469-7.015625-21.066406-12.714844-32.617188-16.953125 12.246094-18.390625 34.175782-27.84375 55.957032-24.121093 21.777343 3.722656 39.324218 19.921874 44.769531 41.335937 5.445312 21.414063-2.234375 44.023437-19.589844 57.699219-3.535156-7.695313-7.738281-15.066406-12.5625-22.027344-1.613281-2.386719-4.390625-3.71875-7.265625-3.484375-2.871094.230469-5.398438 1.992187-6.613281 4.605469-1.210938 2.613281-.925781 5.679687.753906 8.023437 6.171875 8.871094 11.195313 18.492188 14.949219 28.625.050781.089844 0 .183594.089844.273438l.039062.054687c4.265625 11.507813 6.835938 23.574219 7.632812 35.824219-2.695312.183594-5.273437.289063-7.726562.289063-67.328125-.210938-123.03125-52.457032-127.546875-119.632813 2.496094-.144531 4.976563-.375 7.511719-.375 26.140625-.027344 51.652344 8 73.066406 22.992187zm-109.457031 97.007813c-26.585938-23.328125-42.292969-56.648437-43.375-92 16.371093-13.113281 35.730469-21.984375 56.351562-25.824219 3.65625 50.164063 33.167969 94.804688 77.886719 117.824219zm-58.351563-77.875c3.695313 28.988281 16.15625 56.160156 35.710938 77.875h-68.71875c1.820312-28.957031 13.464844-56.421875 33.007812-77.867187zm-62.105468 4.34375-64.796876-64.796875c-3.039062-3.132812-3.007812-8.125.070313-11.21875 3.082031-3.089844 8.070313-3.144531 11.214844-.117188l67.082031 67.078126c.226562.304687.476562.59375.742188.863281 1.003906.957031 1.730468 2.164062 2.105468 3.496093l8 29.785157c-3.945312 9.261719-6.894531 18.914062-8.800781 28.800781l-13.503906-50.296875c-.375-1.359375-1.105469-2.597656-2.113281-3.585937zm-2.949219 89.53125h16.207031c2.8125 52.09375 33.628906 98.574219 80.519531 121.449219s102.492188 18.550781 145.28125-11.296875c2.386719-1.617188 3.71875-4.394531 3.484375-7.269531-.230468-2.871094-1.988281-5.398438-4.605468-6.613282-2.613282-1.210937-5.679688-.925781-8.023438.753906-37.902344 26.445313-87.132812 30.363282-128.738281 10.242188-41.609375-20.117188-69.109375-61.136719-71.917969-107.265625h255.289062c-1.425781 23.359375-9.273437 45.875-22.679687 65.0625-1.679687 2.34375-1.96875 5.410156-.753906 8.023437 1.214843 2.617188 3.742187 4.375 6.613281 4.609376 2.875.230468 5.648438-1.101563 7.265625-3.488282 15.273437-21.871094 24.125-47.574218 25.554687-74.207031h16.101563c-4.261719 85.148437-74.542969 152-159.800781 152-85.253906 0-155.535156-66.851563-159.796875-152zm246.902343 280h-174.207031c6.121094-27.105469 42.847657-48 87.101563-48 44.257812 0 80.984375 20.902344 87.105468 48zm-74.398437-63.410156c-4.175781-.34375-8.394531-.589844-12.707031-.589844-4.308594 0-8.527344.238281-12.703125.589844l-17.046875-51.199219c19.6875 3.425781 39.816406 3.425781 59.503906 0zm0 0"/><path d="m327.796875 202.222656c-1.050781-4.289062-5.382813-6.914062-9.671875-5.863281-24.976562 6.132813-51.226562 4.5-75.246094-4.6875-2.695312-1.121094-5.78125-.6875-8.0625 1.128906-2.277344 1.816407-3.390625 4.730469-2.898437 7.605469.492187 2.875 2.507812 5.25 5.261719 6.207031 27.050781 10.378907 56.625 12.21875 84.753906 5.28125 4.289062-1.054687 6.914062-5.382812 5.863281-9.671875zm0 0"/><path d="m240.027344 264.015625c-37.25-.074219-70.429688-23.5625-82.878906-58.671875-1.476563-4.167969-6.050782-6.347656-10.214844-4.875-4.167969 1.476562-6.347656 6.050781-4.871094 10.21875 14.722656 41.488281 53.941406 69.242188 97.964844 69.328125 4.421875 0 8-3.582031 8-8s-3.578125-8-8-8zm0 0"/></svg>