<svg xmlns="http://www.w3.org/2000/svg" viewBox="0 0 60.71 56.18"><title>Asset 8</title><g id="Layer_2" data-name="Layer 2"><g id="business_2"><path id="roof" d="M26.39,19.3c-3,0-3,0-4,6.84H16C13.56,24.58,18,18.92,11.8,18.9c-.13,2.58-.23,4.72-.36,7.18H.86c-3-9.73,2.51-17.18,6.55-24.95C7.79.39,9.55.06,10.67.06q19.7-.12,39.39,0c1.21,0,3.07.57,3.52,1.44C57.52,9.06,62.66,16.33,60,26H49.37c-.13-2-.26-4.16-.39-6.28-3-.81-3-.81-4,6.42-1,.08-2,.19-3.09.23s-2.18,0-3,0c-2.63-1.87,1.25-7.21-4.48-7.71-.16,2.75-.28,4.9-.42,7.38H26.83C26.69,23.94,26.55,21.81,26.39,19.3Z"/><path id="bottom" d="M52.91,30.42V51l4.35,4.05-.78,1.12H3l4.69-5.55V30.42ZM15.51,48.53H30.07V38H15.51Z"/></g></g></svg>