<svg xmlns="http://www.w3.org/2000/svg" viewBox="0 0 60.22 49.12"><title>Asset 9</title><g id="Layer_2" data-name="Layer 2"><g id="camera_3"><path id="lens" d="M42.36,28.29A12.24,12.24,0,1,1,30,16.18,12.36,12.36,0,0,1,42.36,28.29Z"/><path id="camera" d="M16.89,7.71C17.62.43,22.54-.43,28.39.16a18.61,18.61,0,0,0,4.22,0c5.77-.72,10,.83,10.71,7.55,4.2,0,8.09,0,12,0,3.28,0,4.92,1.56,4.91,4.86q0,16,0,31.92c0,3.07-1.62,4.62-4.67,4.62H4.85C1.56,49.12,0,47.48,0,44.18q0-15.72,0-31.45c0-3.6,1.78-5.08,5.23-5C9,7.75,12.72,7.71,16.89,7.71Zm13.31,4c-8.77-.09-16.53,7.48-16.74,16.35S21,45,30,45.08c8.79.07,16.48-7.44,16.74-16.35S39.26,11.86,30.2,11.75ZM48.26,15.6c1.77,4.86,5.14,3,7.75,3.21C56,15.08,56,15.08,48.26,15.6Z"/></g></g></svg>