<svg xmlns="http://www.w3.org/2000/svg" viewBox="0 0 61.31 49.04"><title>Asset 13</title><g id="Layer_2" data-name="Layer 2"><g id="case_7"><path id="top" d="M35,30c-.32-5.59-4.36-2.86-6.87-3.51l.34,1.33A33.45,33.45,0,0,1,23,30.21C12,32.78,7.11,24,1.49,17.68c-3.74-4.24.06-10.34,5.85-9.95s10.71-.56,14.35-5.61A5.64,5.64,0,0,1,25.64.21C32.67.05,40-1.37,45.07,6.08c1.06,1.56,5.09,1.16,7.76,1.53s6.55-1.18,7.76,2.59S61.84,18,57.91,20.69a13.57,13.57,0,0,0-1.68,1.63C47.68,30.87,47.68,30.87,35,30ZM39.77,7.47c-4-5.09-14.34-4.87-17.25,0Z"/><path id="bottom" d="M61,23.28c0,7.94.2,15.07-.19,22.17-.07,1.26-2.62,3.4-4,3.42C39.52,49.1,22.29,49,5.07,49,2.21,49,.86,47.24.86,44.43c0-6.86,0-13.73,0-21.93,2.47,2.45,4.56,3.88,5.8,5.85,4,6.3,10.07,5.65,16.19,5.71,1.87,0,3.73,1.43,5.59,2.2l-.5,1.32h6l-.37-1.37c1.82-.76,3.76-2.36,5.45-2.12,7.89,1.09,14-1.5,18.58-7.87A24.35,24.35,0,0,1,61,23.28Z"/></g></g></svg>