<svg xmlns="http://www.w3.org/2000/svg" viewBox="0 0 60.37 49.14"><title>Asset 11</title><g id="Layer_2" data-name="Layer 2"><g id="cheese_5"><path id="cheese_dots" d="M18.82,35.9c.43-3.36,2.16-5.61,5.66-5.62s5.6,2.09,5.64,5.53S28,41.4,24.59,41.44,19.29,39.31,18.82,35.9Zm15.4-1.7c.05,1.19,2.5,3.42,3.39,3.2a5.6,5.6,0,0,0,3.52-3.68c.22-1.11-1.71-2.63-3.52-5.1C35.91,31.23,34.16,32.75,34.22,34.2ZM11.64,30.54c-1.49.29-2.66,2.23-4,3.45,1.31,1.22,2.5,3.15,4,3.43,1.11.21,2.62-1.72,5-3.45C14.27,32.26,12.75,30.33,11.64,30.54Z"/><path id="cheese" d="M30,49.06c-8.45,0-16.9-.12-25.35,0-3.42.07-4.75-1-4.63-4.57.22-6.72-.07-13.45.1-20.18.25-10,4.95-17.52,13.08-23.11,2.33-1.6,4.36-1.66,6.9-.21C32.32,8,44.71,14.67,56.87,21.73a7.72,7.72,0,0,1,3.26,5.34c.43,5.6,0,11.26.22,16.89.17,3.8-1,5.3-5,5.17C46.89,48.88,38.44,49.06,30,49.06ZM4.13,45.22c10.17,0,19.85.11,29.52-.1,1.67,0,3.26-1.56,5-2.13,1.48-.5,4.1-1.34,4.47-.81,3.66,5.2,8.67,2.3,13.44,2.28-.61-1.47-1.73-2.11-2.61-3-1.72-1.73-4.25-3.38-4.74-5.46-.73-3.09,1.71-4.94,4.78-5.86,1-.31,1.78-1.65,3.51-3.37H4.13Zm10.75-35c-1.57,2.46-3.35,4.05-3.09,5.16s2.37,2.75,3.76,2.86c1,.07,3-2.07,3-3.14C18.43,13.81,16.7,12.56,14.88,10.26Zm15.28,4c-1.67,2.2-3.41,3.54-3.24,4.54s2,2.57,3.3,2.78C31.06,21.76,33,20,33,19,33.07,17.81,31.64,16.57,30.16,14.3Z"/></g></g></svg>