<svg xmlns="http://www.w3.org/2000/svg" viewBox="0 0 59.97 60.23"><title>Asset 19</title><g id="Layer_2" data-name="Layer 2"><g id="feet_12"><path id="top" d="M56.85,40.17,44,45.22c-3.49-5.11-6.9-9.69-9.84-14.56A31.81,31.81,0,0,1,29.89,21c-1.37-6.62,3-10.9,9.7-10.1,5.93.7,10.36,3.77,12.16,9.5C53.74,26.73,55.1,33.27,56.85,40.17ZM21.94,18.89c-.67-3.2-.91-6.52-1.83-9.63C18.25,3,13.75-.67,9.31.1,4.28,1-.31,7.27,0,13.19a13.94,13.94,0,0,0,1.37,5.86C4.7,25,8.32,30.79,11.91,36.78l12.87-5.54C23.73,26.72,22.77,22.82,21.94,18.89Z"/><path id="bottom" d="M58.48,43c.58,3.72,1.59,7,1.49,10.31-.14,4.53-5,7.7-9.39,6.76-3.55-.76-7.53-7-6.43-10.23A3.53,3.53,0,0,1,46,48.06C49.87,46.41,53.76,44.9,58.48,43ZM17.93,47.46c2.91,3.22,7.13,3.37,10.55.8S32,42,29.81,37.31c-2.06-4.47-4.76-2.66-7.6-1.42L12.86,40C14.8,42.89,16.09,45.43,17.93,47.46Z"/></g></g></svg>