<svg xmlns="http://www.w3.org/2000/svg" viewBox="0 0 60.55 48.92"><title>Asset 12</title><g id="Layer_2" data-name="Layer 2"><g id="meat_6"><path id="inside_meat" d="M28.38,37.79c-4.93-1.39-9.49-2.4-13.83-4a11.6,11.6,0,0,1-5-4.07c-2.52-3.48-1-6.36,3.26-6.71,1.25-.1,2.51,0,3.75-.09,6.44-.55,11.61-3,15-8.9,3.13-5.35,8.85-7.29,14.07-5.28,4.82,1.86,7.27,6.66,6.54,12.67A15.58,15.58,0,0,1,41.78,34.68C37.51,36.32,32.8,36.81,28.38,37.79ZM46.94,18.58c-2.52-1.6-4-3.31-5.27-3.14s-2.41,2.13-3.61,3.31c1.31,1.22,2.48,3.15,4,3.43C43.09,22.38,44.58,20.4,46.94,18.58Z"/><path id="outside_meat" d="M27.83,48.92c-5.81-.18-13.44-1.5-20.17-6A17.38,17.38,0,0,1,.87,23a11,11,0,0,1,11.44-7.9c6.2.22,10.53-1.67,14-7.26C30.5.92,39.55-1.53,47.46.93A18.93,18.93,0,0,1,60.53,18.58C61.1,37.47,49.5,49,27.83,48.92Zm1.42-6.71.25-1c1.4,0,2.82.12,4.21,0C46,39.94,54.6,32.81,56.45,22.3A15.55,15.55,0,0,0,47.84,5.19C41.6,2.32,33.55,3.72,29.78,9.7c-4.39,7-10,9.51-18,9.29-6-.17-9.48,5.42-6.72,10.8a16.72,16.72,0,0,0,7.28,7.41C17.69,39.55,23.59,40.61,29.25,42.21Z"/></g></g></svg>