<svg xmlns="http://www.w3.org/2000/svg" viewBox="0 0 60.32 41.64"><title>Asset 17</title><g id="Layer_2" data-name="Layer 2"><g id="mp3_10"><path id="small_parts" d="M15.27,15.45c-1.48.33-2.61,2.29-3.89,3.55,1.35,1.19,2.59,3.09,4.09,3.33,1.11.18,2.57-1.8,4.87-3.58C17.94,17.09,16.37,15.21,15.27,15.45Zm30,0c-1.47.35-2.56,2.34-3.82,3.62,1.38,1.16,2.65,3,4.16,3.25,1.11.16,2.54-1.84,4.8-3.67C48,17,46.37,15.19,45.27,15.45Zm-15.14,26H47.79c-1.63-7.59-1.63-7.59-8.28-7.59H20.77c-6.65,0-6.65,0-8.29,7.59Z"/><path id="main" d="M30.4.06C38.7.06,47,.19,55.29,0c3.5-.07,5.11.8,5,4.7-.22,10.79-.07,21.6-.08,32.4,0,2.06.21,4.35-2.84,4.34-2.48,0-5.08.9-6.35-2.89-2.81-8.42-3-8.34-11.8-8.34-6.58,0-13.15-.06-19.72,0-8.94.1-7.31-1.33-9.89,7.07-1.12,3.64-3,5-6.35,4.05C2,41,.2,39.16.17,38-.06,26.55.08,15.12,0,3.69,0,.69,1.48,0,4.1,0,12.87.11,21.64.07,30.4.06Zm.21,3.84c-6.42,0-12.84-.11-19.25.09C10.17,4,9,5.28,7.85,6,9,6.51,10.17,7.5,11.34,7.51q18.78.17,37.56,0c1.17,0,2.33-1.29,3.5-2C51.24,5,50.09,4,48.92,4,42.82,3.82,36.71,3.9,30.61,3.9Zm-23,14.89A7.65,7.65,0,0,0,15,26.35,7.65,7.65,0,0,0,22.56,19a7.65,7.65,0,0,0-7.35-7.56A7.65,7.65,0,0,0,7.65,18.79Zm37.6-7.35a7.64,7.64,0,0,0-7.53,7.38A7.46,7.46,0,0,0,52.63,19,7.65,7.65,0,0,0,45.25,11.44Z"/></g></g></svg>