<svg xmlns="http://www.w3.org/2000/svg" viewBox="0 0 52.81 60.45"><title>Asset 16</title><g id="Layer_2" data-name="Layer 2"><g id="music_9"><path id="main" d="M26.39,15.22c7.34,0,14.69.11,22-.05,3.23-.07,4.42,1.07,4.39,4.35q-.21,18.27,0,36.56c0,3.25-1.11,4.4-4.37,4.37q-22-.18-44.06,0c-3.21,0-4.42-1-4.38-4.33C.15,43.93.13,31.74,0,19.56c0-3.24,1.07-4.46,4.35-4.39C11.7,15.34,19,15.22,26.39,15.22Zm15,7.72c-7.23,2.39-14,4.53-20.74,7-.91.33-1.58,2.41-1.66,3.72-.21,4-.07,7.94-.07,11.23-3.32.67-6.09.73-8.35,1.82s-4.41,3.9-2.12,6.06a13.69,13.69,0,0,0,8.42,3.39c3.24.08,5.73-2.29,5.73-6.14,0-3.44-.13-6.88.07-10.31.07-1.21.65-3.08,1.5-3.44,4.25-1.78,8.67-3.17,13.3-4.79v9.76c-2.88.54-5.87.37-7.84,1.71-1.54,1.05-3,4.36-2.42,6,1.2,3.48,4.75,4.31,8.23,3.69,3.32-.59,5.9-2.29,5.93-6.14C41.43,38.84,41.4,31.2,41.4,22.94Z"/><g id="top"><path id="small_parts" d="M25.75,11.37c-6.26,0-12.53.09-18.78-.08-1.15,0-2.28-1.07-3.41-1.64,1.17-.7,2.33-2,3.51-2q18.8-.22,37.57,0c1.22,0,2.42,1.23,3.63,1.88-1.25.62-2.48,1.74-3.74,1.78C38.28,11.47,32,11.37,25.75,11.37ZM10.32.13c-1,0-2,1.34-3,2.05,1,.56,2,1.58,3,1.59,10.33.12,20.66.14,31,0,1.08,0,2.15-1.19,3.22-1.82C43.44,1.31,42.4.16,41.3.12c-5-.2-10-.09-15-.09C21,0,15.63-.08,10.32.13Z"/></g></g></g></svg>