<svg xmlns="http://www.w3.org/2000/svg" viewBox="0 0 45.02 56.07"><title>Asset 18</title><g id="Layer_2" data-name="Layer 2"><g id="person_11"><path id="person" d="M22.46,23.26c-8.71-3-12.13-7.47-11.24-13.5A11.51,11.51,0,0,1,22.2,0,11.49,11.49,0,0,1,33.53,9.36c1.12,6-2.16,10.59-10.35,13.69,7.81,4.84,3.09,11.19,2.47,17.07-.24,2.27-.82,4.51-.65,7,2.86-5.7,5.56-11.49,8.67-17,.87-1.57,3.19-3.69,4.38-3.43,2.25.48,5,2.08,6,4,1.17,2.31.85,5.46.9,8.25.11,5.62,0,11.24,0,17.22H.07c0-8-.21-16.12.1-24.18.12-3.31,2.62-5,6-5.58s4.16,1.71,5.28,4a170.19,170.19,0,0,0,8.93,16.5c-.73-3.78-1.2-7.63-2.27-11.32C16.68,30.61,16.43,26.29,22.46,23.26Z"/></g></g></svg>