<svg xmlns="http://www.w3.org/2000/svg" viewBox="0 0 60.39 60.49"><title>Asset 14</title><g id="Layer_2" data-name="Layer 2"><g id="plane_8"><path id="plane" d="M60.08,8l-12.51,9.4L35.26,26.64c5.68,9.58,13.85,13.43,24.55,10.81,1.12,7.71,1.19,8-5,9.65-4.21,1.14-7,3.14-7.56,7.59-.75,5.46-3.94,6.86-9.66,5.06,1.89-10.2-.37-19.15-10.9-24.5L7.88,60.14c-2.31-2.21-4.62-4-6.38-6.29C.81,53,.92,51,1.39,49.72c3.07-8,6-16.1,9.65-23.87,2-4.19,1.25-6.85-2.14-9.58A51.36,51.36,0,0,1,2.6,10C.46,7.51-1.35,4.48,1.37,1.62c3-3.1,6.12-1.19,8.68,1.08a101.33,101.33,0,0,1,8,8c1.74,1.94,3.31,2.17,5.72,1.15,7.62-3.23,15.53-5.8,23-9.38C51.38.17,54.5.75,57.36,4.78,58.05,5.77,58.93,6.63,60.08,8Z"/></g></g></svg>